<mxfile host="65bd71144e">
    <diagram id="hZSgeQHSBU0CcpTPpmFL" name="Page-1">
        <mxGraphModel dx="662" dy="289" grid="1" gridSize="10" guides="1" tooltips="1" connect="1" arrows="1" fold="1" page="1" pageScale="1" pageWidth="850" pageHeight="1100" math="0" shadow="0">
            <root>
                <mxCell id="0"/>
                <mxCell id="1" parent="0"/>
                <mxCell id="17" value="&lt;ol&gt;&lt;li&gt;Value 1&lt;/li&gt;&lt;li&gt;Value 2&lt;/li&gt;&lt;li&gt;Value 3&lt;/li&gt;&lt;/ol&gt;" style="text;strokeColor=none;fillColor=none;html=1;whiteSpace=wrap;verticalAlign=middle;overflow=hidden;" vertex="1" parent="1">
                    <mxGeometry x="40" y="40" width="100" height="80" as="geometry"/>
                </mxCell>
                <mxCell id="18" value="" style="shape=cylinder3;whiteSpace=wrap;html=1;boundedLbl=1;backgroundOutline=1;size=15;" vertex="1" parent="1">
                    <mxGeometry x="510" y="40" width="60" height="80" as="geometry"/>
                </mxCell>
            </root>
        </mxGraphModel>
    </diagram>
</mxfile>